<mxfile host="Electron" agent="Mozilla/5.0 (Macintosh; Intel Mac OS X 10_15_7) AppleWebKit/537.36 (KHTML, like Gecko) draw.io/28.1.2 Chrome/138.0.7204.243 Electron/37.4.0 Safari/537.36" version="28.1.2">
  <diagram name="第 1 页" id="nPo2o0PRnlDx6VbOVV2b">
    <mxGraphModel dx="1426" dy="1941" grid="1" gridSize="10" guides="1" tooltips="1" connect="1" arrows="1" fold="1" page="1" pageScale="1" pageWidth="827" pageHeight="1169" math="0" shadow="0">
      <root>
        <mxCell id="0" />
        <mxCell id="1" parent="0" />
        <mxCell id="qvEVlxeyxFjj9wp3Fzey-3" value="" style="edgeStyle=orthogonalEdgeStyle;rounded=0;orthogonalLoop=1;jettySize=auto;html=1;" parent="1" source="qvEVlxeyxFjj9wp3Fzey-1" target="qvEVlxeyxFjj9wp3Fzey-2" edge="1">
          <mxGeometry relative="1" as="geometry" />
        </mxCell>
        <mxCell id="qvEVlxeyxFjj9wp3Fzey-1" value="Provider" style="rounded=0;whiteSpace=wrap;html=1;" parent="1" vertex="1">
          <mxGeometry x="80" y="280" width="120" height="60" as="geometry" />
        </mxCell>
        <mxCell id="qvEVlxeyxFjj9wp3Fzey-13" value="传参" style="edgeStyle=orthogonalEdgeStyle;rounded=0;orthogonalLoop=1;jettySize=auto;html=1;entryX=0.5;entryY=0;entryDx=0;entryDy=0;" parent="1" source="qvEVlxeyxFjj9wp3Fzey-2" target="qvEVlxeyxFjj9wp3Fzey-11" edge="1">
          <mxGeometry relative="1" as="geometry" />
        </mxCell>
        <mxCell id="qvEVlxeyxFjj9wp3Fzey-22" value="" style="edgeStyle=orthogonalEdgeStyle;rounded=0;orthogonalLoop=1;jettySize=auto;html=1;" parent="1" source="qvEVlxeyxFjj9wp3Fzey-2" target="qvEVlxeyxFjj9wp3Fzey-21" edge="1">
          <mxGeometry relative="1" as="geometry" />
        </mxCell>
        <mxCell id="qvEVlxeyxFjj9wp3Fzey-2" value="ServiceCenter" style="whiteSpace=wrap;html=1;rounded=0;fillColor=#fff2cc;strokeColor=#d6b656;" parent="1" vertex="1">
          <mxGeometry x="300" y="280" width="120" height="60" as="geometry" />
        </mxCell>
        <mxCell id="qvEVlxeyxFjj9wp3Fzey-8" style="edgeStyle=orthogonalEdgeStyle;rounded=0;orthogonalLoop=1;jettySize=auto;html=1;entryX=0.5;entryY=0;entryDx=0;entryDy=0;" parent="1" source="qvEVlxeyxFjj9wp3Fzey-6" target="qvEVlxeyxFjj9wp3Fzey-2" edge="1">
          <mxGeometry relative="1" as="geometry" />
        </mxCell>
        <mxCell id="qvEVlxeyxFjj9wp3Fzey-9" value="register" style="edgeLabel;html=1;align=center;verticalAlign=middle;resizable=0;points=[];" parent="qvEVlxeyxFjj9wp3Fzey-8" vertex="1" connectable="0">
          <mxGeometry x="-0.1714" y="-1" relative="1" as="geometry">
            <mxPoint as="offset" />
          </mxGeometry>
        </mxCell>
        <mxCell id="qvEVlxeyxFjj9wp3Fzey-6" value="ServiceImpl" style="rounded=0;whiteSpace=wrap;html=1;" parent="1" vertex="1">
          <mxGeometry x="300" y="140" width="120" height="60" as="geometry" />
        </mxCell>
        <mxCell id="qvEVlxeyxFjj9wp3Fzey-20" value="" style="edgeStyle=orthogonalEdgeStyle;rounded=0;orthogonalLoop=1;jettySize=auto;html=1;" parent="1" source="qvEVlxeyxFjj9wp3Fzey-11" target="qvEVlxeyxFjj9wp3Fzey-19" edge="1">
          <mxGeometry relative="1" as="geometry" />
        </mxCell>
        <mxCell id="qvEVlxeyxFjj9wp3Fzey-11" value="RpcServer" style="whiteSpace=wrap;html=1;rounded=0;fillColor=#fff2cc;strokeColor=#d6b656;" parent="1" vertex="1">
          <mxGeometry x="300" y="400" width="120" height="60" as="geometry" />
        </mxCell>
        <mxCell id="qvEVlxeyxFjj9wp3Fzey-14" value="NettyServer" style="rounded=0;whiteSpace=wrap;html=1;" parent="1" vertex="1">
          <mxGeometry x="300" y="530" width="120" height="60" as="geometry" />
        </mxCell>
        <mxCell id="qvEVlxeyxFjj9wp3Fzey-16" value="" style="endArrow=classic;startArrow=classic;html=1;rounded=0;entryX=0.5;entryY=1;entryDx=0;entryDy=0;exitX=0.5;exitY=0;exitDx=0;exitDy=0;" parent="1" source="qvEVlxeyxFjj9wp3Fzey-14" target="qvEVlxeyxFjj9wp3Fzey-11" edge="1">
          <mxGeometry width="50" height="50" relative="1" as="geometry">
            <mxPoint x="200" y="590" as="sourcePoint" />
            <mxPoint x="250" y="540" as="targetPoint" />
          </mxGeometry>
        </mxCell>
        <mxCell id="qvEVlxeyxFjj9wp3Fzey-17" value="指定实现类型" style="edgeLabel;html=1;align=center;verticalAlign=middle;resizable=0;points=[];" parent="qvEVlxeyxFjj9wp3Fzey-16" vertex="1" connectable="0">
          <mxGeometry x="0.1" relative="1" as="geometry">
            <mxPoint as="offset" />
          </mxGeometry>
        </mxCell>
        <mxCell id="qvEVlxeyxFjj9wp3Fzey-26" style="edgeStyle=orthogonalEdgeStyle;rounded=0;orthogonalLoop=1;jettySize=auto;html=1;entryX=0.5;entryY=1;entryDx=0;entryDy=0;" parent="1" source="qvEVlxeyxFjj9wp3Fzey-19" target="qvEVlxeyxFjj9wp3Fzey-25" edge="1">
          <mxGeometry relative="1" as="geometry" />
        </mxCell>
        <mxCell id="qvEVlxeyxFjj9wp3Fzey-27" value="反射" style="edgeLabel;html=1;align=center;verticalAlign=middle;resizable=0;points=[];" parent="qvEVlxeyxFjj9wp3Fzey-26" vertex="1" connectable="0">
          <mxGeometry x="0.2462" relative="1" as="geometry">
            <mxPoint as="offset" />
          </mxGeometry>
        </mxCell>
        <mxCell id="qvEVlxeyxFjj9wp3Fzey-19" value="RpcServerBuilder&lt;div&gt;Start&lt;/div&gt;" style="whiteSpace=wrap;html=1;rounded=0;" parent="1" vertex="1">
          <mxGeometry x="680" y="400" width="120" height="60" as="geometry" />
        </mxCell>
        <mxCell id="qvEVlxeyxFjj9wp3Fzey-42" style="edgeStyle=orthogonalEdgeStyle;rounded=0;orthogonalLoop=1;jettySize=auto;html=1;entryX=0.5;entryY=1;entryDx=0;entryDy=0;" parent="1" source="qvEVlxeyxFjj9wp3Fzey-21" target="qvEVlxeyxFjj9wp3Fzey-40" edge="1">
          <mxGeometry relative="1" as="geometry" />
        </mxCell>
        <mxCell id="qvEVlxeyxFjj9wp3Fzey-21" value="InitConnection" style="whiteSpace=wrap;html=1;rounded=0;" parent="1" vertex="1">
          <mxGeometry x="500" y="280" width="120" height="60" as="geometry" />
        </mxCell>
        <mxCell id="qvEVlxeyxFjj9wp3Fzey-23" value="提交注册的服务到&lt;div&gt;zookeeper&lt;/div&gt;" style="whiteSpace=wrap;html=1;rounded=0;" parent="1" vertex="1">
          <mxGeometry x="890" y="400" width="120" height="60" as="geometry" />
        </mxCell>
        <mxCell id="qvEVlxeyxFjj9wp3Fzey-32" style="edgeStyle=orthogonalEdgeStyle;rounded=0;orthogonalLoop=1;jettySize=auto;html=1;exitX=1;exitY=0.5;exitDx=0;exitDy=0;entryX=0;entryY=0.5;entryDx=0;entryDy=0;" parent="1" source="qvEVlxeyxFjj9wp3Fzey-19" target="qvEVlxeyxFjj9wp3Fzey-23" edge="1">
          <mxGeometry relative="1" as="geometry" />
        </mxCell>
        <mxCell id="qvEVlxeyxFjj9wp3Fzey-25" value="Netty 服务启动" style="whiteSpace=wrap;html=1;rounded=0;" parent="1" vertex="1">
          <mxGeometry x="680" y="250" width="120" height="60" as="geometry" />
        </mxCell>
        <mxCell id="qvEVlxeyxFjj9wp3Fzey-29" style="edgeStyle=orthogonalEdgeStyle;rounded=0;orthogonalLoop=1;jettySize=auto;html=1;entryX=0.5;entryY=0;entryDx=0;entryDy=0;" parent="1" source="qvEVlxeyxFjj9wp3Fzey-28" target="qvEVlxeyxFjj9wp3Fzey-25" edge="1">
          <mxGeometry relative="1" as="geometry" />
        </mxCell>
        <mxCell id="qvEVlxeyxFjj9wp3Fzey-28" value="NettyInitialize" style="whiteSpace=wrap;html=1;rounded=0;" parent="1" vertex="1">
          <mxGeometry x="680" y="120" width="120" height="60" as="geometry" />
        </mxCell>
        <mxCell id="qvEVlxeyxFjj9wp3Fzey-31" style="edgeStyle=orthogonalEdgeStyle;rounded=0;orthogonalLoop=1;jettySize=auto;html=1;entryX=0.5;entryY=0;entryDx=0;entryDy=0;" parent="1" source="qvEVlxeyxFjj9wp3Fzey-30" target="qvEVlxeyxFjj9wp3Fzey-28" edge="1">
          <mxGeometry relative="1" as="geometry" />
        </mxCell>
        <mxCell id="qvEVlxeyxFjj9wp3Fzey-33" style="edgeStyle=orthogonalEdgeStyle;rounded=0;orthogonalLoop=1;jettySize=auto;html=1;entryX=0.5;entryY=0;entryDx=0;entryDy=0;startArrow=classic;startFill=1;" parent="1" source="qvEVlxeyxFjj9wp3Fzey-30" target="qvEVlxeyxFjj9wp3Fzey-6" edge="1">
          <mxGeometry relative="1" as="geometry" />
        </mxCell>
        <mxCell id="qvEVlxeyxFjj9wp3Fzey-34" value="调用" style="edgeLabel;html=1;align=center;verticalAlign=middle;resizable=0;points=[];" parent="qvEVlxeyxFjj9wp3Fzey-33" vertex="1" connectable="0">
          <mxGeometry x="-0.2128" y="-3" relative="1" as="geometry">
            <mxPoint as="offset" />
          </mxGeometry>
        </mxCell>
        <mxCell id="qvEVlxeyxFjj9wp3Fzey-30" value="&lt;div style=&quot;&quot;&gt;&lt;pre style=&quot;font-family:&#39;JetBrains Mono&#39;,monospace;font-size:9.8pt;&quot;&gt;NettyHandler&lt;/pre&gt;&lt;/div&gt;" style="whiteSpace=wrap;html=1;fillColor=#dae8fc;strokeColor=#6c8ebf;fontColor=#000000;labelBackgroundColor=none;" parent="1" vertex="1">
          <mxGeometry x="680" y="-10" width="120" height="60" as="geometry" />
        </mxCell>
        <mxCell id="qvEVlxeyxFjj9wp3Fzey-38" style="edgeStyle=orthogonalEdgeStyle;rounded=0;orthogonalLoop=1;jettySize=auto;html=1;entryX=1;entryY=0.5;entryDx=0;entryDy=0;" parent="1" source="qvEVlxeyxFjj9wp3Fzey-36" target="qvEVlxeyxFjj9wp3Fzey-28" edge="1">
          <mxGeometry relative="1" as="geometry" />
        </mxCell>
        <mxCell id="qvEVlxeyxFjj9wp3Fzey-52" style="edgeStyle=orthogonalEdgeStyle;rounded=0;orthogonalLoop=1;jettySize=auto;html=1;entryX=0;entryY=0.5;entryDx=0;entryDy=0;" parent="1" source="qvEVlxeyxFjj9wp3Fzey-36" target="qvEVlxeyxFjj9wp3Fzey-51" edge="1">
          <mxGeometry relative="1" as="geometry" />
        </mxCell>
        <mxCell id="qvEVlxeyxFjj9wp3Fzey-36" value="Encoder" style="whiteSpace=wrap;html=1;rounded=0;fillColor=#dae8fc;strokeColor=#6c8ebf;" parent="1" vertex="1">
          <mxGeometry x="990" y="80" width="120" height="60" as="geometry" />
        </mxCell>
        <mxCell id="qvEVlxeyxFjj9wp3Fzey-39" style="edgeStyle=orthogonalEdgeStyle;rounded=0;orthogonalLoop=1;jettySize=auto;html=1;entryX=1;entryY=0.5;entryDx=0;entryDy=0;" parent="1" source="qvEVlxeyxFjj9wp3Fzey-37" target="qvEVlxeyxFjj9wp3Fzey-28" edge="1">
          <mxGeometry relative="1" as="geometry" />
        </mxCell>
        <mxCell id="qvEVlxeyxFjj9wp3Fzey-53" style="edgeStyle=orthogonalEdgeStyle;rounded=0;orthogonalLoop=1;jettySize=auto;html=1;entryX=0;entryY=0.5;entryDx=0;entryDy=0;" parent="1" source="qvEVlxeyxFjj9wp3Fzey-37" target="qvEVlxeyxFjj9wp3Fzey-51" edge="1">
          <mxGeometry relative="1" as="geometry" />
        </mxCell>
        <mxCell id="qvEVlxeyxFjj9wp3Fzey-37" value="Decoder" style="whiteSpace=wrap;html=1;rounded=0;fillColor=#dae8fc;strokeColor=#6c8ebf;" parent="1" vertex="1">
          <mxGeometry x="990" y="160" width="120" height="60" as="geometry" />
        </mxCell>
        <mxCell id="qvEVlxeyxFjj9wp3Fzey-40" value="watch" style="whiteSpace=wrap;html=1;rounded=0;" parent="1" vertex="1">
          <mxGeometry x="500" y="150" width="120" height="60" as="geometry" />
        </mxCell>
        <mxCell id="qvEVlxeyxFjj9wp3Fzey-43" value="&lt;div style=&quot;&quot;&gt;&lt;pre style=&quot;font-family:&#39;JetBrains Mono&#39;,monospace;font-size:9.8pt;&quot;&gt;NettyHandler&lt;/pre&gt;&lt;/div&gt;" style="whiteSpace=wrap;html=1;labelBackgroundColor=none;fillColor=#dae8fc;strokeColor=#6c8ebf;" parent="1" vertex="1">
          <mxGeometry x="1300" y="-10" width="120" height="60" as="geometry" />
        </mxCell>
        <mxCell id="qvEVlxeyxFjj9wp3Fzey-44" value="" style="endArrow=classic;startArrow=classic;html=1;rounded=0;exitX=1;exitY=0.5;exitDx=0;exitDy=0;entryX=0;entryY=0.5;entryDx=0;entryDy=0;fillColor=#dae8fc;strokeColor=#6c8ebf;" parent="1" source="qvEVlxeyxFjj9wp3Fzey-30" target="qvEVlxeyxFjj9wp3Fzey-43" edge="1">
          <mxGeometry width="50" height="50" relative="1" as="geometry">
            <mxPoint x="980" y="20" as="sourcePoint" />
            <mxPoint x="1030" y="-30" as="targetPoint" />
          </mxGeometry>
        </mxCell>
        <mxCell id="qvEVlxeyxFjj9wp3Fzey-45" value="网络通信" style="edgeLabel;html=1;align=center;verticalAlign=middle;resizable=0;points=[];" parent="qvEVlxeyxFjj9wp3Fzey-44" vertex="1" connectable="0">
          <mxGeometry x="-0.0038" y="-2" relative="1" as="geometry">
            <mxPoint as="offset" />
          </mxGeometry>
        </mxCell>
        <mxCell id="qvEVlxeyxFjj9wp3Fzey-56" style="edgeStyle=orthogonalEdgeStyle;rounded=0;orthogonalLoop=1;jettySize=auto;html=1;entryX=0.5;entryY=1;entryDx=0;entryDy=0;startArrow=classic;startFill=1;" parent="1" source="qvEVlxeyxFjj9wp3Fzey-49" target="qvEVlxeyxFjj9wp3Fzey-51" edge="1">
          <mxGeometry relative="1" as="geometry" />
        </mxCell>
        <mxCell id="qvEVlxeyxFjj9wp3Fzey-49" value="Netty 服务发送数据" style="whiteSpace=wrap;html=1;rounded=0;" parent="1" vertex="1">
          <mxGeometry x="1300" y="250" width="120" height="60" as="geometry" />
        </mxCell>
        <mxCell id="qvEVlxeyxFjj9wp3Fzey-57" style="edgeStyle=orthogonalEdgeStyle;rounded=0;orthogonalLoop=1;jettySize=auto;html=1;entryX=0.5;entryY=1;entryDx=0;entryDy=0;startArrow=classicThin;startFill=1;" parent="1" source="qvEVlxeyxFjj9wp3Fzey-51" target="qvEVlxeyxFjj9wp3Fzey-43" edge="1">
          <mxGeometry relative="1" as="geometry" />
        </mxCell>
        <mxCell id="qvEVlxeyxFjj9wp3Fzey-51" value="NettyInitialize" style="whiteSpace=wrap;html=1;rounded=0;" parent="1" vertex="1">
          <mxGeometry x="1300" y="120" width="120" height="60" as="geometry" />
        </mxCell>
        <mxCell id="qvEVlxeyxFjj9wp3Fzey-63" value="" style="edgeStyle=orthogonalEdgeStyle;rounded=0;orthogonalLoop=1;jettySize=auto;html=1;" parent="1" source="qvEVlxeyxFjj9wp3Fzey-58" target="qvEVlxeyxFjj9wp3Fzey-62" edge="1">
          <mxGeometry relative="1" as="geometry" />
        </mxCell>
        <mxCell id="qvEVlxeyxFjj9wp3Fzey-58" value="Consumer" style="rounded=0;whiteSpace=wrap;html=1;" parent="1" vertex="1">
          <mxGeometry x="1788" y="250" width="120" height="60" as="geometry" />
        </mxCell>
        <mxCell id="qvEVlxeyxFjj9wp3Fzey-60" style="edgeStyle=orthogonalEdgeStyle;rounded=0;orthogonalLoop=1;jettySize=auto;html=1;entryX=0;entryY=0.5;entryDx=0;entryDy=0;exitX=0;exitY=0.5;exitDx=0;exitDy=0;" parent="1" source="qvEVlxeyxFjj9wp3Fzey-59" target="qvEVlxeyxFjj9wp3Fzey-6" edge="1">
          <mxGeometry relative="1" as="geometry">
            <Array as="points">
              <mxPoint x="40" y="660" />
              <mxPoint x="40" y="170" />
            </Array>
          </mxGeometry>
        </mxCell>
        <mxCell id="qvEVlxeyxFjj9wp3Fzey-64" style="edgeStyle=orthogonalEdgeStyle;rounded=0;orthogonalLoop=1;jettySize=auto;html=1;exitX=1;exitY=0.5;exitDx=0;exitDy=0;entryX=0.5;entryY=1;entryDx=0;entryDy=0;" parent="1" source="qvEVlxeyxFjj9wp3Fzey-59" target="qvEVlxeyxFjj9wp3Fzey-62" edge="1">
          <mxGeometry relative="1" as="geometry" />
        </mxCell>
        <mxCell id="qvEVlxeyxFjj9wp3Fzey-59" value="&lt;font style=&quot;font-size: 21px;&quot;&gt;ServiceInterface&lt;/font&gt;" style="rounded=0;whiteSpace=wrap;html=1;" parent="1" vertex="1">
          <mxGeometry x="651.75" y="560" width="596.5" height="200" as="geometry" />
        </mxCell>
        <mxCell id="qvEVlxeyxFjj9wp3Fzey-70" style="edgeStyle=orthogonalEdgeStyle;rounded=0;orthogonalLoop=1;jettySize=auto;html=1;entryX=1;entryY=0.5;entryDx=0;entryDy=0;startArrow=classic;startFill=1;" parent="1" source="qvEVlxeyxFjj9wp3Fzey-62" target="qvEVlxeyxFjj9wp3Fzey-49" edge="1">
          <mxGeometry relative="1" as="geometry" />
        </mxCell>
        <mxCell id="qvEVlxeyxFjj9wp3Fzey-75" value="根据协议选择发送方式" style="edgeLabel;html=1;align=center;verticalAlign=middle;resizable=0;points=[];" parent="qvEVlxeyxFjj9wp3Fzey-70" vertex="1" connectable="0">
          <mxGeometry x="0.1752" y="1" relative="1" as="geometry">
            <mxPoint x="13" y="-1" as="offset" />
          </mxGeometry>
        </mxCell>
        <mxCell id="qvEVlxeyxFjj9wp3Fzey-62" value="Proxy" style="whiteSpace=wrap;html=1;rounded=0;fillColor=#fff2cc;strokeColor=#d6b656;" parent="1" vertex="1">
          <mxGeometry x="1588" y="250" width="120" height="60" as="geometry" />
        </mxCell>
        <mxCell id="qvEVlxeyxFjj9wp3Fzey-66" value="Zookeeper" style="whiteSpace=wrap;html=1;rounded=0;" parent="1" vertex="1">
          <mxGeometry x="1588" y="-10" width="120" height="60" as="geometry" />
        </mxCell>
        <mxCell id="qvEVlxeyxFjj9wp3Fzey-73" style="rounded=0;orthogonalLoop=1;jettySize=auto;html=1;entryX=0.5;entryY=0;entryDx=0;entryDy=0;startArrow=classic;startFill=1;" parent="1" source="qvEVlxeyxFjj9wp3Fzey-71" target="qvEVlxeyxFjj9wp3Fzey-62" edge="1">
          <mxGeometry relative="1" as="geometry" />
        </mxCell>
        <mxCell id="qvEVlxeyxFjj9wp3Fzey-71" value="Cache&lt;div&gt;LoadBalance&lt;/div&gt;" style="whiteSpace=wrap;html=1;rounded=0;fillColor=#fff2cc;strokeColor=#d6b656;" parent="1" vertex="1">
          <mxGeometry x="1588" y="120" width="120" height="60" as="geometry" />
        </mxCell>
        <mxCell id="qvEVlxeyxFjj9wp3Fzey-72" value="" style="endArrow=classic;startArrow=classic;html=1;rounded=0;entryX=0.5;entryY=1;entryDx=0;entryDy=0;exitX=0.5;exitY=0;exitDx=0;exitDy=0;" parent="1" source="qvEVlxeyxFjj9wp3Fzey-71" target="qvEVlxeyxFjj9wp3Fzey-66" edge="1">
          <mxGeometry width="50" height="50" relative="1" as="geometry">
            <mxPoint x="1520" y="150" as="sourcePoint" />
            <mxPoint x="1570" y="100" as="targetPoint" />
          </mxGeometry>
        </mxCell>
        <mxCell id="qvEVlxeyxFjj9wp3Fzey-74" value="ServiceURI" style="edgeLabel;html=1;align=center;verticalAlign=middle;resizable=0;points=[];" parent="qvEVlxeyxFjj9wp3Fzey-72" vertex="1" connectable="0">
          <mxGeometry x="0.0467" relative="1" as="geometry">
            <mxPoint as="offset" />
          </mxGeometry>
        </mxCell>
        <mxCell id="Y1vPbgsseN96M4vT2CLB-2" value="" style="html=1;verticalLabelPosition=bottom;align=center;labelBackgroundColor=#ffffff;verticalAlign=top;strokeWidth=2;strokeColor=#0080F0;shadow=0;dashed=0;shape=mxgraph.ios7.icons.reload;" parent="1" vertex="1">
          <mxGeometry x="1390" y="70" width="24" height="27" as="geometry" />
        </mxCell>
        <mxCell id="LUDojROn2vz9iZoSnnhp-3" style="edgeStyle=orthogonalEdgeStyle;rounded=0;orthogonalLoop=1;jettySize=auto;html=1;entryX=0.5;entryY=0;entryDx=0;entryDy=0;" parent="1" source="LUDojROn2vz9iZoSnnhp-1" target="qvEVlxeyxFjj9wp3Fzey-30" edge="1">
          <mxGeometry relative="1" as="geometry">
            <Array as="points">
              <mxPoint x="200" y="-60" />
              <mxPoint x="740" y="-60" />
            </Array>
          </mxGeometry>
        </mxCell>
        <mxCell id="LUDojROn2vz9iZoSnnhp-4" value="限流" style="edgeLabel;html=1;align=center;verticalAlign=middle;resizable=0;points=[];" parent="LUDojROn2vz9iZoSnnhp-3" vertex="1" connectable="0">
          <mxGeometry x="0.0946" y="-2" relative="1" as="geometry">
            <mxPoint as="offset" />
          </mxGeometry>
        </mxCell>
        <mxCell id="LUDojROn2vz9iZoSnnhp-1" value="RateLimit" style="whiteSpace=wrap;html=1;rounded=0;fillColor=#fff2cc;strokeColor=#d6b656;" parent="1" vertex="1">
          <mxGeometry x="140" width="120" height="60" as="geometry" />
        </mxCell>
        <mxCell id="LUDojROn2vz9iZoSnnhp-2" style="edgeStyle=orthogonalEdgeStyle;rounded=0;orthogonalLoop=1;jettySize=auto;html=1;entryX=0.5;entryY=0;entryDx=0;entryDy=0;exitX=0.5;exitY=1;exitDx=0;exitDy=0;" parent="1" source="LUDojROn2vz9iZoSnnhp-1" target="qvEVlxeyxFjj9wp3Fzey-2" edge="1">
          <mxGeometry relative="1" as="geometry">
            <Array as="points">
              <mxPoint x="200" y="220" />
              <mxPoint x="360" y="220" />
            </Array>
          </mxGeometry>
        </mxCell>
      </root>
    </mxGraphModel>
  </diagram>
</mxfile>
